<svg width="76" height="80" viewBox="0 0 76 80" fill="none" xmlns="http://www.w3.org/2000/svg">
<path fill-rule="evenodd" clip-rule="evenodd" d="M7.58064 0.228447C4.41831 0.926829 2.13653 2.71566 0.842253 5.51064L0 7.33V40.0326V72.7352L0.842253 74.5545C1.76653 76.5501 3.61761 78.384 5.69704 79.3647C6.9046 79.9341 8.54322 79.9977 22.0858 79.9999C36.3773 80.0024 37.1708 79.9675 37.8938 79.3102C38.8502 78.44 38.9034 76.5261 37.9939 75.6984C37.4024 75.1599 35.8277 75.097 22.9631 75.097C7.15753 75.097 6.68347 75.0367 5.57744 72.886C4.78758 71.35 4.78758 8.71513 5.57744 7.1792C6.20326 5.96194 8.1136 4.96814 9.82701 4.96814C10.9815 4.96814 11.1289 5.11095 12.1146 7.18465C13.325 9.73182 14.9962 11.3764 16.6966 11.6932C17.3466 11.8142 22.0377 11.8633 27.1212 11.8019L36.364 11.6903L37.6405 10.7104C38.3606 10.158 39.4508 8.69297 40.1409 7.35071C41.2726 5.15019 41.4547 4.97069 42.5571 4.9696C44.0454 4.96778 45.589 5.75155 46.5722 7.00842C47.3075 7.94844 47.3266 8.3267 47.3266 21.9135C47.3266 35.3696 47.3519 35.8794 48.0493 36.5807C48.9782 37.5149 50.7336 37.5149 51.6625 36.5807C52.3595 35.8797 52.3852 35.3696 52.3852 22.1123C52.3852 6.77369 52.275 5.87946 50.0604 3.27778C49.3515 2.44496 47.9691 1.42173 46.8909 0.931917L44.978 0.0627542L26.9116 0.00570627C16.9751 -0.0255429 8.2762 0.0747451 7.58064 0.228447ZM35.4028 5.44051C35.4028 6.67267 34.6166 6.78495 25.9747 6.78495C17.0778 6.78495 16.9751 6.76788 16.9751 5.30171C16.9751 5.10804 20.8345 4.96814 26.189 4.96814C33.508 4.96814 35.4028 5.06516 35.4028 5.44051ZM52.1221 41.4403C42.9524 43.7858 36.6068 52.489 37.3049 61.7624C38.0785 72.0401 46.2824 79.8531 56.3471 79.8971C62.0279 79.9221 66.3158 78.1635 70.2698 74.1875C80.4701 63.9295 76.4825 46.6988 62.8228 42.006C59.9586 41.0224 54.8191 40.7506 52.1221 41.4403ZM61.1752 46.733C71.3838 50.2652 74.338 62.8565 66.7765 70.6059C59.2421 78.3277 46.5541 75.3474 42.9426 65.0076C41.9064 62.0403 42.1206 57.5496 43.4362 54.6695C45.1128 50.9996 48.7654 47.7253 52.4885 46.5553C54.7996 45.8289 58.798 45.9107 61.1752 46.733ZM54.9145 48.5716C54.5062 48.9822 54.1918 49.7827 54.1918 50.412C54.1918 51.206 53.8771 51.7917 53.0948 52.4538C51.6008 53.7179 50.8795 55.2487 50.8795 57.1564C50.8795 60.0291 53.0002 62.415 56.0068 62.9259C57.0582 63.1046 57.4438 63.3452 57.4438 63.8223C57.4438 64.6042 56.4722 64.9113 53.9768 64.9178C52.6096 64.9214 51.9704 65.1068 51.4927 65.6376C50.1233 67.1594 51.1599 69.6466 53.1639 69.6466C54.0596 69.6466 54.1918 69.7836 54.1918 70.7102C54.1918 71.8628 55.5916 73.2802 56.7298 73.2802C57.8051 73.2802 58.9006 72.075 59.129 70.64C59.2746 69.7255 59.8003 68.816 60.7138 67.897C63.0902 65.5072 63.0935 62.1617 60.7214 59.7762C59.7631 58.8122 58.9209 58.3381 57.8676 58.1687C56.3056 57.9173 55.4109 57.228 55.808 56.5816C55.9363 56.373 57.0665 56.2022 58.3196 56.2022C61.0654 56.2022 62.5024 55.3283 62.5024 53.6587C62.5024 52.5155 61.0827 51.1151 59.9243 51.1151C59.5077 51.1151 59.2504 50.8564 59.2504 50.4375C59.2504 50.0647 58.9133 49.3288 58.5014 48.8023C57.5854 47.6309 55.9544 47.5258 54.9145 48.5716ZM17.5731 65.5875C16.7793 66.4694 16.8125 68.296 17.636 69.0452C18.2087 69.5667 19.3592 69.6466 26.2873 69.6466C34.1349 69.6466 34.2878 69.6321 34.8402 68.8388C35.1495 68.3948 35.4028 67.6954 35.4028 67.2848C35.4028 66.8742 35.1495 66.1747 34.8402 65.7307C34.2878 64.9371 34.1371 64.9229 26.2244 64.9229C18.8815 64.9229 18.1184 64.9814 17.5731 65.5875Z" fill="#7058EE"/>
</svg>
