<svg width="75" height="75" viewBox="0 0 75 75" fill="none" xmlns="http://www.w3.org/2000/svg">
<path d="M48.7188 38.75V51.4687C48.7188 52.5937 48.5938 53.6562 48.3125 54.625C47.1563 59.2187 43.3437 62.0938 38.0937 62.0938H29.5938L20.1562 68.375C18.75 69.3437 16.875 68.3125 16.875 66.625V62.0938C13.6875 62.0938 11.0313 61.0313 9.1875 59.1875C7.3125 57.3125 6.25 54.6562 6.25 51.4687V38.75C6.25 32.8125 9.9375 28.7188 15.625 28.1875C16.0312 28.1563 16.4375 28.125 16.875 28.125H38.0937C44.4687 28.125 48.7188 32.375 48.7188 38.75Z" fill="#7058EE"/>
<path d="M55.4688 48.75C59.4375 48.75 62.7812 47.4375 65.0937 45.0938C67.4375 42.7813 68.75 39.4375 68.75 35.4688V19.5312C68.75 12.1875 62.8125 6.25 55.4688 6.25H28.9062C21.5625 6.25 15.625 12.1875 15.625 19.5312V21.875C15.625 22.75 16.3125 23.4375 17.1875 23.4375H38.0937C46.5625 23.4375 53.4063 30.2812 53.4063 38.75V47.1875C53.4063 48.0625 54.0938 48.75 54.9688 48.75H55.4688V48.75Z" fill="#7058EE"/>
</svg>
