<svg width="75" height="75" viewBox="0 0 75 75" fill="none" xmlns="http://www.w3.org/2000/svg">
<path d="M37.5 6.25C29.3125 6.25 22.6562 12.9063 22.6562 21.0938C22.6562 29.125 28.9375 35.625 37.125 35.9062C37.375 35.875 37.625 35.875 37.8125 35.9062C37.875 35.9062 37.9062 35.9062 37.9687 35.9062C38 35.9062 38 35.9062 38.0313 35.9062C46.0313 35.625 52.3125 29.125 52.3438 21.0938C52.3438 12.9063 45.6875 6.25 37.5 6.25Z" fill="#7058EE"/>
<path d="M53.375 44.2187C44.6562 38.4063 30.4375 38.4063 21.6562 44.2187C17.6875 46.875 15.5 50.4687 15.5 54.3125C15.5 58.1562 17.6875 61.7188 21.625 64.3437C26 67.2812 31.75 68.75 37.5 68.75C43.25 68.75 49 67.2812 53.375 64.3437C57.3125 61.6875 59.5 58.125 59.5 54.25C59.4688 50.4063 57.3125 46.8437 53.375 44.2187Z" fill="#7058EE"/>
</svg>
