<svg width="90" height="90" viewBox="0 0 90 90" fill="none" xmlns="http://www.w3.org/2000/svg">
<path d="M50.2496 65.3248H40.8371C34.6871 65.3248 29.6996 60.1498 29.6996 53.7748C29.6996 52.2373 30.9746 50.9623 32.5121 50.9623C34.0496 50.9623 35.3246 52.2373 35.3246 53.7748C35.3246 57.0373 37.7996 59.6998 40.8371 59.6998H50.2496C52.6871 59.6998 54.7121 57.5248 54.7121 54.8998C54.7121 51.6373 53.5496 50.9998 51.6371 50.3248L36.5246 44.9998C33.5996 43.9873 29.6621 41.8123 29.6621 35.0998C29.6621 29.3248 34.1996 24.6748 39.7496 24.6748H49.1621C55.3121 24.6748 60.2996 29.8498 60.2996 36.2248C60.2996 37.7623 59.0246 39.0373 57.4871 39.0373C55.9496 39.0373 54.6746 37.7623 54.6746 36.2248C54.6746 32.9623 52.1996 30.2998 49.1621 30.2998H39.7496C37.3121 30.2998 35.2871 32.4748 35.2871 35.0998C35.2871 38.3623 36.4496 38.9998 38.3621 39.6748L53.4746 44.9998C56.3996 46.0123 60.3371 48.1873 60.3371 54.8998C60.2996 60.6373 55.7996 65.3248 50.2496 65.3248Z" fill="#7058EE"/>
<path d="M45 70.3125C43.4625 70.3125 42.1875 69.0375 42.1875 67.5V22.5C42.1875 20.9625 43.4625 19.6875 45 19.6875C46.5375 19.6875 47.8125 20.9625 47.8125 22.5V67.5C47.8125 69.0375 46.5375 70.3125 45 70.3125Z" fill="#7058EE"/>
<path d="M45 85.3125C22.7625 85.3125 4.6875 67.2375 4.6875 45C4.6875 22.7625 22.7625 4.6875 45 4.6875C67.2375 4.6875 85.3125 22.7625 85.3125 45C85.3125 67.2375 67.2375 85.3125 45 85.3125ZM45 10.3125C25.875 10.3125 10.3125 25.875 10.3125 45C10.3125 64.125 25.875 79.6875 45 79.6875C64.125 79.6875 79.6875 64.125 79.6875 45C79.6875 25.875 64.125 10.3125 45 10.3125Z" fill="#7058EE"/>
</svg>
