<svg width="55" height="55" viewBox="0 0 55 55" fill="none" xmlns="http://www.w3.org/2000/svg">
<path fill-rule="evenodd" clip-rule="evenodd" d="M0 12.5146V25.0293H12.5146H25.0293V12.5146V0H12.5146H0V12.5146ZM29.9707 12.5146V25.0293H42.4854H55V12.5146V0H42.4854H29.9707V12.5146ZM19.9805 12.5146V19.9805H12.5146H5.04883V12.5146V5.04883H12.5146H19.9805V12.5146ZM49.9512 12.5146V19.9805H42.4854H35.0195V12.5146V5.04883H42.4854H49.9512V12.5146ZM9.99023 12.5166V15.043L12.4878 15.0141L14.9854 14.9854L15.0141 12.4878L15.043 9.99023H12.5166H9.99023V12.5166ZM39.9859 12.4878L40.0146 14.9854L42.5122 15.0141L45.0098 15.043V12.5166V9.99023H42.4834H39.957L39.9859 12.4878ZM0 42.4854V55H12.5146H25.0293V42.4854V29.9707H12.5146H0V42.4854ZM29.9707 42.4854V55H32.4951H35.0195V47.4805V39.9609H37.4902H39.9609V42.4854V45.0098H47.4805H55V37.4883V29.9667L52.5024 29.9956L50.0049 30.0244L49.9761 32.522L49.9472 35.0195H47.4785H45.0098V32.4951V29.9707H37.4902H29.9707V42.4854ZM19.9805 42.4854V49.9512H12.5146H5.04883V42.4854V35.0195H12.5146H19.9805V42.4854ZM9.99023 42.4834V45.0098H12.5166H15.043L15.0141 42.5122L14.9854 40.0146L12.4878 39.9859L9.99023 39.957V42.4834ZM40.0345 50.0208C39.994 50.0613 39.9609 51.1981 39.9609 52.5472V55H42.4873H45.0137L44.9848 52.5024L44.9561 50.0049L42.5321 49.9761C41.1989 49.9602 40.075 49.9804 40.0345 50.0208ZM50.0228 50.0228C49.9834 50.0621 49.9512 51.1981 49.9512 52.5472V55H52.4756H55V52.4756V49.9512H52.5472C51.1981 49.9512 50.0621 49.9834 50.0228 50.0228Z" fill="white"/>
</svg>
