<svg width="70" height="75" viewBox="0 0 70 75" fill="none" xmlns="http://www.w3.org/2000/svg">
<path d="M8.07982 31.2507C6.82565 31.2507 5.83398 30.1882 5.83398 28.8445V21.6257C5.83398 13.157 12.2798 6.25073 20.184 6.25073H26.9215C28.1756 6.25073 29.1673 7.31323 29.1673 8.65698C29.1673 10.0007 28.1756 11.0632 26.9215 11.0632H20.184C14.7298 11.0632 10.3257 15.8132 10.3257 21.6257V28.8445C10.3257 30.1882 9.30482 31.2507 8.07982 31.2507Z" fill="#9791B7"/>
<path d="M61.9215 31.2507C60.6965 31.2507 59.6757 30.1882 59.6757 28.8445V21.6257C59.6757 15.782 55.2423 11.0632 49.8173 11.0632H43.0798C41.8257 11.0632 40.834 9.96948 40.834 8.65698C40.834 7.34448 41.8257 6.25073 43.0798 6.25073H49.8173C57.7215 6.25073 64.1673 13.157 64.1673 21.6257V28.8445C64.1673 30.1882 63.1757 31.2507 61.9215 31.2507Z" fill="#9791B7"/>
<path d="M49.8156 68.75H45.7615C44.5365 68.75 43.5156 67.6875 43.5156 66.3437C43.5156 65.0312 44.5073 63.9375 45.7615 63.9375H49.8156C55.2698 63.9375 59.674 59.1875 59.674 53.375V49.0625C59.674 47.75 60.6656 46.6562 61.9198 46.6562C63.1448 46.6562 64.1656 47.7187 64.1656 49.0625V53.375C64.1656 61.8438 57.7198 68.75 49.8156 68.75Z" fill="#9791B7"/>
<path d="M26.9215 68.7498H20.184C12.2798 68.7498 5.83398 61.8435 5.83398 53.3748V46.156C5.83398 44.8123 6.82565 43.7498 8.07982 43.7498C9.33398 43.7498 10.3257 44.8123 10.3257 46.156V53.3748C10.3257 59.2185 14.759 63.9373 20.184 63.9373H26.9215C28.1465 63.9373 29.1673 64.9998 29.1673 66.3435C29.1673 67.6873 28.1756 68.7498 26.9215 68.7498Z" fill="#9791B7"/>
<path d="M53.8413 35.0945H49.8746H20.1246H16.1579C14.9038 35.0945 13.9121 36.1882 13.9121 37.5007C13.9121 38.8132 14.9038 39.907 16.1579 39.907H20.1246H49.8746H53.8413C55.0954 39.907 56.0871 38.8132 56.0871 37.5007C56.0871 36.1882 55.0954 35.0945 53.8413 35.0945Z" fill="#9791B7"/>
<path d="M20.125 43.5637V44.595C20.125 49.7825 24.0333 53.97 28.875 53.97H41.125C45.9667 53.97 49.875 49.7825 49.875 44.595V43.5637C49.875 43.1887 49.6125 42.9075 49.2625 42.9075H20.7375C20.3875 42.9075 20.125 43.1887 20.125 43.5637Z" fill="#9791B7"/>
<path d="M20.125 31.4382V30.407C20.125 25.2195 24.0333 21.032 28.875 21.032H41.125C45.9667 21.032 49.875 25.2195 49.875 30.407V31.4382C49.875 31.8132 49.6125 32.0945 49.2625 32.0945H20.7375C20.3875 32.0945 20.125 31.8132 20.125 31.4382Z" fill="#9791B7"/>
</svg>
