<svg width="75" height="75" viewBox="0 0 75 75" fill="none" xmlns="http://www.w3.org/2000/svg">
<path fill-rule="evenodd" clip-rule="evenodd" d="M37.7301 0.0439857C33.5353 0.496331 29.5933 2.20633 26.1689 5.05921C22.7862 7.8775 20.2349 12.2176 19.2332 16.8581C18.8635 18.5703 18.8666 23.4145 19.2384 25.1392C21.0679 33.6254 27.5124 39.9827 36.0055 41.6798C37.7989 42.038 41.918 42.0366 43.7192 41.6769C52.4853 39.9266 59.014 33.2585 60.6035 24.4322C60.9001 22.7854 60.9001 19.186 60.6035 17.5392C59.3935 10.8205 55.0905 5.03092 49.1591 2.14081C47.463 1.31454 45.5185 0.653757 43.784 0.314425C42.5968 0.0820965 38.9054 -0.0828057 37.7301 0.0439857ZM6.07349 7.19356C5.47112 7.45593 4.86832 8.20173 4.75037 8.83027C4.62406 9.50424 5.02334 10.5571 5.54702 10.93C5.76461 11.0851 7.0848 11.7784 8.48059 12.471C11.2634 13.8515 11.8238 13.9796 12.7124 13.4376C13.4595 12.9818 13.7994 12.3243 13.7357 11.458C13.6444 10.2168 13.435 10.0369 10.2168 8.43684C8.61334 7.6396 7.12568 6.98996 6.91087 6.99304C6.69607 6.99626 6.31935 7.08641 6.07349 7.19356ZM69.7458 8.30624C68.2549 9.04603 66.8805 9.79403 66.6915 9.96831C65.2059 11.339 66.0998 13.7276 68.0988 13.7294C68.9817 13.7303 74.1031 11.1766 74.5897 10.4931C75.0838 9.79901 75.133 8.79875 74.704 8.17344C74.23 7.48246 73.7046 7.12584 73.0298 7.03686C72.5267 6.97046 72.1245 7.12598 69.7458 8.30624ZM41.0142 9.73847C41.5329 10.1227 42.0526 10.9174 42.0526 11.3265C42.0526 11.5981 42.1555 11.6839 42.5759 11.7627C43.1831 11.8768 43.8752 12.413 44.1825 13.0072C44.6482 13.9081 44.2899 15.1386 43.3863 15.7425C42.9243 16.0512 42.731 16.0753 40.7049 16.0753C38.3981 16.0753 37.8339 16.2035 37.5147 16.8001C37.1849 17.4166 37.4768 18.3918 38.0686 18.6508C38.2047 18.7105 39.2739 18.7984 40.4444 18.8463C42.462 18.929 42.6224 18.9582 43.5368 19.4086C44.6981 19.9809 45.7273 21.0297 46.2755 22.1997C46.6194 22.9336 46.6681 23.22 46.6681 24.5036C46.6681 25.7872 46.6194 26.0736 46.2755 26.8075C45.5743 28.304 44.1377 29.5824 42.6753 30.0109C42.1613 30.1614 42.0526 30.2561 42.0526 30.5532C42.0526 31.178 41.4614 32.0287 40.8072 32.3456C40.4743 32.5068 40.0556 32.6388 39.877 32.6388C38.9617 32.6388 37.8948 31.7364 37.7222 30.8159C37.6433 30.3948 37.5546 30.307 37.1272 30.2266C36.4488 30.0994 35.6461 29.3634 35.4419 28.6817C35.1498 27.7068 35.5521 26.6294 36.3862 26.1517C36.5887 26.0356 37.6013 25.9427 39.1718 25.8961L41.6391 25.8228L41.9924 25.4115C42.4585 24.869 42.4657 24.0973 42.009 23.6404C41.6993 23.3307 41.5071 23.2968 39.6279 23.2209C38.0321 23.1564 37.3977 23.0683 36.7364 22.8192C32.9619 21.3979 31.7574 16.6135 34.436 13.6818C35.1223 12.9304 36.4289 12.1073 37.2349 11.9184C37.5457 11.8456 37.6364 11.7185 37.7109 11.2515C37.8186 10.5782 38.4059 9.81909 39.0415 9.53106C39.6046 9.27616 40.5201 9.37232 41.0142 9.73847ZM8.17099 29.6705C5.45837 31.044 5.335 31.1255 5.00942 31.7593C4.45952 32.8298 4.72634 33.8284 5.77091 34.6085C6.57797 35.2112 7.24671 35.0528 10.2944 33.5358C13.3722 32.0041 13.6435 31.7668 13.7348 30.5268C13.7996 29.646 13.4642 28.9923 12.7124 28.5338C11.7919 27.9724 11.2646 28.1043 8.17099 29.6705ZM66.9469 28.5741C66.2572 29.035 65.9061 29.7649 65.9767 30.5909C66.0764 31.7568 66.3099 31.952 69.5169 33.5479C72.111 34.8388 72.5239 35.0018 73.0298 34.9348C73.7047 34.8455 74.2302 34.4887 74.704 33.7979C74.9761 33.4014 75.0337 33.1585 74.9837 32.6209C74.8741 31.4421 74.5527 31.1674 71.4866 29.6327C68.3849 28.0801 67.8667 27.9594 66.9469 28.5741ZM62.7514 46.3409C60.9673 46.8429 60.7396 47.0341 54.2874 53.4479C48.5236 59.1776 48.0638 59.5995 47.0345 60.1013C45.5194 60.8403 44.4257 60.9561 39.4884 60.9011C35.6962 60.8589 35.3481 60.8332 34.8883 60.5622C33.4557 59.7182 33.3321 57.8818 34.6415 56.9024C35.0162 56.6223 35.3075 56.6001 39.5353 56.5307L44.0307 56.4568L44.9283 56.0424C45.999 55.5481 46.7221 54.841 47.2764 53.7462C47.6247 53.0582 47.6834 52.7683 47.6771 51.7674C47.6663 50.0171 46.9462 48.6794 45.5357 47.7885C44.3012 47.009 43.913 46.981 35.1274 47.0392C26.2152 47.098 26.3288 47.0873 24.3231 48.0565C22.8683 48.7593 21.1852 50.5147 20.3432 52.2071C19.9822 52.9327 19.6483 53.6747 19.6011 53.8562C19.5183 54.1742 19.455 54.186 17.8166 54.186H16.1178V62.2521V70.3184L32.1988 70.2719C50.2549 70.2197 48.8402 70.307 51.2104 69.101C52.3351 68.5288 52.7426 68.145 61.275 59.6231C71.1152 49.7947 70.6457 50.3597 70.1188 48.9798C69.9279 48.4793 69.6478 48.1629 68.8999 47.6026C68.366 47.2026 67.563 46.7315 67.1158 46.5559C66.0556 46.1396 63.8524 46.031 62.7514 46.3409ZM1.55598 49.4963C1.32389 49.5681 0.969152 49.7788 0.767827 49.9642C-0.0185707 50.6892 3.79978e-05 50.3904 3.79978e-05 62.249C3.79978e-05 72.9882 0.00707119 73.267 0.294992 73.8315C0.484888 74.2039 0.796107 74.5153 1.16843 74.7052C1.70764 74.9804 2.02633 75.0003 5.89179 75C10.5224 74.9998 10.7415 74.9595 11.3894 73.9892L11.722 73.4911V62.2849C11.722 49.7993 11.771 50.4096 10.7174 49.7543C10.199 49.4318 10.0644 49.4213 6.08081 49.3938C3.82433 49.3783 1.78823 49.4245 1.55598 49.4963Z" fill="#7058EE"/>
</svg>
