<svg width="70" height="70" viewBox="0 0 70 70" fill="none" xmlns="http://www.w3.org/2000/svg">
<path d="M35 45.9375C28.9625 45.9375 24.0625 41.0375 24.0625 35C24.0625 28.9625 28.9625 24.0625 35 24.0625C41.0375 24.0625 45.9375 28.9625 45.9375 35C45.9375 41.0375 41.0375 45.9375 35 45.9375ZM35 28.4375C31.3833 28.4375 28.4375 31.3833 28.4375 35C28.4375 38.6167 31.3833 41.5625 35 41.5625C38.6167 41.5625 41.5625 38.6167 41.5625 35C41.5625 31.3833 38.6167 28.4375 35 28.4375Z" fill="#10054C"/>
<path d="M44.3631 64.7209C43.7506 64.7209 43.1381 64.6334 42.5256 64.4875C40.7173 63.9917 39.2006 62.8542 38.2381 61.25L37.8881 60.6667C36.1673 57.6917 33.8048 57.6917 32.084 60.6667L31.7632 61.2209C30.8007 62.8542 29.284 64.0209 27.4756 64.4875C25.6382 64.9834 23.7423 64.7209 22.1382 63.7584L17.1215 60.8709C15.3423 59.85 14.059 58.1875 13.5048 56.175C12.9798 54.1625 13.2423 52.0917 14.2632 50.3125C15.109 48.825 15.3423 47.4834 14.8465 46.6375C14.3507 45.7917 13.0965 45.2959 11.3757 45.2959C7.11732 45.2959 3.64648 41.825 3.64648 37.5667V32.4334C3.64648 28.175 7.11732 24.7042 11.3757 24.7042C13.0965 24.7042 14.3507 24.2084 14.8465 23.3625C15.3423 22.5167 15.1382 21.175 14.2632 19.6875C13.2423 17.9084 12.9798 15.8084 13.5048 13.825C14.0298 11.8125 15.3132 10.15 17.1215 9.12919L22.1673 6.24169C25.4631 4.28752 29.809 5.42502 31.7923 8.77919L32.1423 9.36252C33.8632 12.3375 36.2257 12.3375 37.9465 9.36252L38.2673 8.80835C40.2506 5.42502 44.5965 4.28752 47.9215 6.27086L52.9381 9.15836C54.7173 10.1792 56.0006 11.8417 56.5548 13.8542C57.0798 15.8667 56.8173 17.9375 55.7965 19.7167C54.9506 21.2042 54.7173 22.5459 55.2131 23.3917C55.709 24.2375 56.9632 24.7334 58.684 24.7334C62.9423 24.7334 66.4131 28.2042 66.4131 32.4625V37.5959C66.4131 41.8542 62.9423 45.325 58.684 45.325C56.9632 45.325 55.709 45.8209 55.2131 46.6667C54.7173 47.5125 54.9215 48.8542 55.7965 50.3417C56.8173 52.1209 57.109 54.2209 56.5548 56.2042C56.0298 58.2167 54.7465 59.8792 52.9381 60.9L47.8923 63.7875C46.784 64.4 45.5881 64.7209 44.3631 64.7209ZM35.0006 53.9292C37.5965 53.9292 40.0173 55.5625 41.6798 58.45L42.0006 59.0042C42.3506 59.6167 42.934 60.0542 43.634 60.2292C44.334 60.4042 45.034 60.3167 45.6173 59.9667L50.6632 57.05C51.4215 56.6125 52.0048 55.8834 52.2381 55.0084C52.4715 54.1334 52.3548 53.2292 51.9173 52.4709C50.2548 49.6125 50.0506 46.6667 51.334 44.4209C52.6173 42.175 55.2715 40.8917 58.5965 40.8917C60.4631 40.8917 61.9506 39.4042 61.9506 37.5375V32.4042C61.9506 30.5667 60.4631 29.05 58.5965 29.05C55.2715 29.05 52.6173 27.7667 51.334 25.5209C50.0506 23.275 50.2548 20.3292 51.9173 17.4709C52.3548 16.7125 52.4715 15.8084 52.2381 14.9334C52.0048 14.0584 51.4506 13.3584 50.6923 12.8917L45.6465 10.0042C44.3923 9.24586 42.7298 9.68335 41.9715 10.9667L41.6506 11.5209C39.9881 14.4084 37.5673 16.0417 34.9715 16.0417C32.3756 16.0417 29.9548 14.4084 28.2923 11.5209L27.9715 10.9375C27.2423 9.71252 25.609 9.27502 24.3548 10.0042L19.309 12.9209C18.5506 13.3584 17.9673 14.0875 17.734 14.9625C17.5007 15.8375 17.6173 16.7417 18.0548 17.5C19.7173 20.3584 19.9215 23.3042 18.6381 25.55C17.3548 27.7959 14.7007 29.0792 11.3757 29.0792C9.50898 29.0792 8.02148 30.5667 8.02148 32.4334V37.5667C8.02148 39.4042 9.50898 40.9209 11.3757 40.9209C14.7007 40.9209 17.3548 42.2042 18.6381 44.45C19.9215 46.6959 19.7173 49.6417 18.0548 52.5C17.6173 53.2584 17.5007 54.1625 17.734 55.0375C17.9673 55.9125 18.5215 56.6125 19.2798 57.0792L24.3257 59.9667C24.9382 60.3459 25.6673 60.4334 26.3381 60.2584C27.0381 60.0834 27.6215 59.6167 28.0007 59.0042L28.3215 58.45C29.984 55.5917 32.4048 53.9292 35.0006 53.9292Z" fill="#10054C"/>
</svg>
