<svg width="90" height="90" viewBox="0 0 90 90" fill="none" xmlns="http://www.w3.org/2000/svg">
<path d="M82.5 23.6626H45C43.4625 23.6626 42.1875 22.3876 42.1875 20.8501C42.1875 19.3126 43.4625 18.0376 45 18.0376H82.5C84.0375 18.0376 85.3125 19.3126 85.3125 20.8501C85.3125 22.4251 84.0375 23.6626 82.5 23.6626Z" fill="#7058EE"/>
<path d="M74.1746 42.1875H53.3621C45.1496 42.1875 42.2246 39.3 42.2246 31.125V15.75C42.2246 7.575 45.1496 4.6875 53.3621 4.6875H74.1746C82.3871 4.6875 85.3121 7.575 85.3121 15.75V31.1625C85.3121 39.3 82.3871 42.1875 74.1746 42.1875ZM53.3246 10.3125C48.2246 10.3125 47.8121 10.725 47.8121 15.75V31.1625C47.8121 36.1875 48.2246 36.6 53.3246 36.6H74.137C79.237 36.6 79.6495 36.1875 79.6495 31.1625V15.75C79.6495 10.725 79.237 10.3125 74.137 10.3125H53.3246Z" fill="#7058EE"/>
<path d="M45 66.7876H7.5C5.9625 66.7876 4.6875 65.5126 4.6875 63.9751C4.6875 62.4376 5.9625 61.1626 7.5 61.1626H45C46.5375 61.1626 47.8125 62.4376 47.8125 63.9751C47.8125 65.5501 46.5375 66.7876 45 66.7876Z" fill="#7058EE"/>
<path d="M36.6746 85.3125H15.8621C7.64961 85.3125 4.72461 82.425 4.72461 74.25V58.875C4.72461 50.7 7.64961 47.8125 15.8621 47.8125H36.6746C44.8871 47.8125 47.8121 50.7 47.8121 58.875V74.2875C47.8121 82.425 44.8871 85.3125 36.6746 85.3125ZM15.8246 53.4375C10.7246 53.4375 10.3121 53.85 10.3121 58.875V74.2875C10.3121 79.3125 10.7246 79.725 15.8246 79.725H36.637C41.737 79.725 42.1495 79.3125 42.1495 74.2875V58.875C42.1495 53.85 41.737 53.4375 36.637 53.4375H15.8246Z" fill="#7058EE"/>
<path d="M56.2517 85.3124C55.2392 85.3124 54.3017 84.7499 53.8142 83.8874C53.3267 82.9874 53.3267 81.9374 53.8517 81.0374L57.7892 74.4749C58.5767 73.1624 60.3017 72.7124 61.6517 73.4999C63.0017 74.2874 63.4143 76.0124 62.6268 77.3624L61.6142 79.0499C71.9642 76.6124 79.7267 67.3124 79.7267 56.2124C79.7267 54.6749 81.0017 53.3999 82.5392 53.3999C84.0767 53.3999 85.3517 54.6749 85.3517 56.2124C85.3142 72.2624 72.2642 85.3124 56.2517 85.3124Z" fill="#7058EE"/>
<path d="M7.5 36.5625C5.9625 36.5625 4.6875 35.2875 4.6875 33.75C4.6875 17.7375 17.7375 4.6875 33.75 4.6875C34.7625 4.6875 35.7 5.25 36.1875 6.1125C36.675 7.0125 36.6751 8.0625 36.1501 8.9625L32.2125 15.525C31.425 16.8375 29.7 17.2875 28.35 16.5C27 15.7125 26.5875 13.9875 27.375 12.6375L28.3875 10.95C18.0375 13.3875 10.275 22.6875 10.275 33.7875C10.3125 35.2875 9.0375 36.5625 7.5 36.5625Z" fill="#7058EE"/>
</svg>
