<svg width="322" height="314" viewBox="0 0 322 314" fill="none" xmlns="http://www.w3.org/2000/svg">
<g filter="url(#filter0_d_513_13)">
<path d="M161 19.625C83.2043 19.625 20.125 81.1371 20.125 157C20.125 232.863 83.2043 294.375 161 294.375C238.796 294.375 301.875 232.863 301.875 157C301.875 81.1371 238.796 19.625 161 19.625ZM161 271.07C96.4113 271.07 44.0234 219.984 44.0234 157C44.0234 94.016 96.4113 42.9297 161 42.9297C225.589 42.9297 277.977 94.016 277.977 157C277.977 219.984 225.589 271.07 161 271.07Z" fill="black"/>
<path d="M215.935 195.821L171.094 164.206V88.3125C171.094 86.9633 169.962 85.8594 168.578 85.8594H153.453C152.07 85.8594 150.938 86.9633 150.938 88.3125V172.761C150.938 173.559 151.315 174.295 151.975 174.754L203.986 211.735C205.118 212.533 206.69 212.287 207.508 211.214L216.501 199.255C217.319 198.121 217.067 196.587 215.935 195.821V195.821Z" fill="black"/>
</g>
<defs>
<filter id="filter0_d_513_13" x="-4" y="0" width="330" height="322" filterUnits="userSpaceOnUse" color-interpolation-filters="sRGB">
<feFlood flood-opacity="0" result="BackgroundImageFix"/>
<feColorMatrix in="SourceAlpha" type="matrix" values="0 0 0 0 0 0 0 0 0 0 0 0 0 0 0 0 0 0 127 0" result="hardAlpha"/>
<feOffset dy="4"/>
<feGaussianBlur stdDeviation="2"/>
<feComposite in2="hardAlpha" operator="out"/>
<feColorMatrix type="matrix" values="0 0 0 0 0 0 0 0 0 0 0 0 0 0 0 0 0 0 0.25 0"/>
<feBlend mode="normal" in2="BackgroundImageFix" result="effect1_dropShadow_513_13"/>
<feBlend mode="normal" in="SourceGraphic" in2="effect1_dropShadow_513_13" result="shape"/>
</filter>
</defs>
</svg>
