<svg width="30" height="30" viewBox="0 0 30 30" fill="none" xmlns="http://www.w3.org/2000/svg">
<g filter="url(#filter0_d_513_9)">
<path d="M15 12C14.4067 12 13.8266 12.1759 13.3333 12.5056C12.8399 12.8352 12.4554 13.3038 12.2284 13.8519C12.0013 14.4001 11.9419 15.0033 12.0576 15.5853C12.1734 16.1672 12.4591 16.7018 12.8787 17.1213C13.2982 17.5409 13.8328 17.8266 14.4147 17.9424C14.9967 18.0581 15.5999 17.9987 16.1481 17.7716C16.6962 17.5446 17.1648 17.1601 17.4944 16.6667C17.8241 16.1734 18 15.5933 18 15C18 14.2044 17.6839 13.4413 17.1213 12.8787C16.5587 12.3161 15.7956 12 15 12ZM15 16C14.8022 16 14.6089 15.9414 14.4444 15.8315C14.28 15.7216 14.1518 15.5654 14.0761 15.3827C14.0004 15.2 13.9806 14.9989 14.0192 14.8049C14.0578 14.6109 14.153 14.4327 14.2929 14.2929C14.4327 14.153 14.6109 14.0578 14.8049 14.0192C14.9989 13.9806 15.2 14.0004 15.3827 14.0761C15.5654 14.1518 15.7216 14.28 15.8315 14.4444C15.9414 14.6089 16 14.8022 16 15C16 15.2652 15.8946 15.5196 15.7071 15.7071C15.5196 15.8946 15.2652 16 15 16ZM14.29 9.71C14.3851 9.80104 14.4972 9.87241 14.62 9.92C14.7397 9.97291 14.8691 10.0002 15 10.0002C15.1309 10.0002 15.2603 9.97291 15.38 9.92C15.5028 9.87241 15.6149 9.80104 15.71 9.71L18 7.46C18.1936 7.26639 18.3024 7.0038 18.3024 6.73C18.3024 6.4562 18.1936 6.19361 18 6C17.8064 5.80639 17.5438 5.69762 17.27 5.69762C16.9962 5.69762 16.7336 5.80639 16.54 6L16 6.59V3C16 2.73478 15.8946 2.48043 15.7071 2.29289C15.5196 2.10536 15.2652 2 15 2C14.7348 2 14.4804 2.10536 14.2929 2.29289C14.1054 2.48043 14 2.73478 14 3V6.59L13.46 6C13.2664 5.80639 13.0038 5.69762 12.73 5.69762C12.4562 5.69762 12.1936 5.80639 12 6C11.8064 6.19361 11.6976 6.4562 11.6976 6.73C11.6976 7.0038 11.8064 7.26639 12 7.46L14.29 9.71ZM22 15C22 14.8022 21.9414 14.6089 21.8315 14.4444C21.7216 14.28 21.5654 14.1518 21.3827 14.0761C21.2 14.0004 20.9989 13.9806 20.8049 14.0192C20.6109 14.0578 20.4327 14.153 20.2929 14.2929C20.153 14.4327 20.0578 14.6109 20.0192 14.8049C19.9806 14.9989 20.0004 15.2 20.0761 15.3827C20.1518 15.5654 20.28 15.7216 20.4444 15.8315C20.6089 15.9414 20.8022 16 21 16C21.2652 16 21.5196 15.8946 21.7071 15.7071C21.8946 15.5196 22 15.2652 22 15ZM23 8H20C19.7348 8 19.4804 8.10536 19.2929 8.29289C19.1054 8.48043 19 8.73478 19 9C19 9.26522 19.1054 9.51957 19.2929 9.70711C19.4804 9.89464 19.7348 10 20 10H23C23.2652 10 23.5196 10.1054 23.7071 10.2929C23.8946 10.4804 24 10.7348 24 11V19C24 19.2652 23.8946 19.5196 23.7071 19.7071C23.5196 19.8946 23.2652 20 23 20H7C6.73478 20 6.48043 19.8946 6.29289 19.7071C6.10536 19.5196 6 19.2652 6 19V11C6 10.7348 6.10536 10.4804 6.29289 10.2929C6.48043 10.1054 6.73478 10 7 10H10C10.2652 10 10.5196 9.89464 10.7071 9.70711C10.8946 9.51957 11 9.26522 11 9C11 8.73478 10.8946 8.48043 10.7071 8.29289C10.5196 8.10536 10.2652 8 10 8H7C6.20435 8 5.44129 8.31607 4.87868 8.87868C4.31607 9.44129 4 10.2044 4 11V19C4 19.7956 4.31607 20.5587 4.87868 21.1213C5.44129 21.6839 6.20435 22 7 22H23C23.7956 22 24.5587 21.6839 25.1213 21.1213C25.6839 20.5587 26 19.7956 26 19V11C26 10.2044 25.6839 9.44129 25.1213 8.87868C24.5587 8.31607 23.7956 8 23 8ZM8 15C8 15.1978 8.05865 15.3911 8.16853 15.5556C8.27841 15.72 8.43459 15.8482 8.61732 15.9239C8.80004 15.9996 9.00111 16.0194 9.19509 15.9808C9.38907 15.9422 9.56725 15.847 9.70711 15.7071C9.84696 15.5673 9.9422 15.3891 9.98079 15.1951C10.0194 15.0011 9.99957 14.8 9.92388 14.6173C9.84819 14.4346 9.72002 14.2784 9.55557 14.1685C9.39112 14.0586 9.19778 14 9 14C8.73478 14 8.48043 14.1054 8.29289 14.2929C8.10536 14.4804 8 14.7348 8 15Z" fill="black"/>
</g>
<defs>
<filter id="filter0_d_513_9" x="-1" y="0" width="32" height="32" filterUnits="userSpaceOnUse" color-interpolation-filters="sRGB">
<feFlood flood-opacity="0" result="BackgroundImageFix"/>
<feColorMatrix in="SourceAlpha" type="matrix" values="0 0 0 0 0 0 0 0 0 0 0 0 0 0 0 0 0 0 127 0" result="hardAlpha"/>
<feOffset dy="4"/>
<feGaussianBlur stdDeviation="2"/>
<feComposite in2="hardAlpha" operator="out"/>
<feColorMatrix type="matrix" values="0 0 0 0 0 0 0 0 0 0 0 0 0 0 0 0 0 0 0.25 0"/>
<feBlend mode="normal" in2="BackgroundImageFix" result="effect1_dropShadow_513_9"/>
<feBlend mode="normal" in="SourceGraphic" in2="effect1_dropShadow_513_9" result="shape"/>
</filter>
</defs>
</svg>
